<?xml version="1.0" encoding="UTF-8" standalone="no"?>
<!DOCTYPE svg PUBLIC "-//W3C//DTD SVG 1.1//EN"
 "http://www.w3.org/Graphics/SVG/1.1/DTD/svg11.dtd">
<!-- Generated by graphviz version 2.43.0 (0)
 -->
<!-- Title: brown_bear Pages: 1 -->
<svg width="1490pt" height="824pt"
 viewBox="0.00 0.00 1490.00 823.50" xmlns="http://www.w3.org/2000/svg" xmlns:xlink="http://www.w3.org/1999/xlink">
<g id="graph0" class="graph" transform="scale(1 1) rotate(0) translate(4 819.5)">
<title>brown_bear</title>
<polygon fill="white" stroke="transparent" points="-4,4 -4,-819.5 1486,-819.5 1486,4 -4,4"/>
<g id="clust1" class="cluster">
<title>cluster_wink</title>
<polygon fill="none" stroke="black" points="589,-163 589,-238 951,-238 951,-163 589,-163"/>
<text text-anchor="middle" x="770" y="-222.8" font-family="Times,serif" font-size="14.00">wink</text>
</g>
<g id="clust2" class="cluster">
<title>cluster_bot</title>
<polygon fill="none" stroke="black" points="989,-80 989,-366.5 1457,-366.5 1457,-80 989,-80"/>
<text text-anchor="middle" x="1223" y="-351.3" font-family="Times,serif" font-size="14.00">bot</text>
</g>
<g id="clust3" class="cluster">
<title>cluster_bot_commands</title>
<polygon fill="none" stroke="black" points="997,-260.5 997,-335.5 1449,-335.5 1449,-260.5 997,-260.5"/>
<text text-anchor="middle" x="1223" y="-320.3" font-family="Times,serif" font-size="14.00">commands</text>
</g>
<g id="clust4" class="cluster">
<title>cluster_zalgo</title>
<polygon fill="none" stroke="black" points="999,-374.5 999,-542.5 1221,-542.5 1221,-374.5 999,-374.5"/>
<text text-anchor="middle" x="1110" y="-527.3" font-family="Times,serif" font-size="14.00">zalgo</text>
</g>
<g id="clust5" class="cluster">
<title>cluster_dict</title>
<polygon fill="none" stroke="black" points="8,-163 8,-807.5 581,-807.5 581,-163 8,-163"/>
<text text-anchor="middle" x="294.5" y="-792.3" font-family="Times,serif" font-size="14.00">dict</text>
</g>
<g id="clust6" class="cluster">
<title>cluster_dict_source</title>
<polygon fill="none" stroke="black" points="330,-632.5 330,-776.5 573,-776.5 573,-632.5 330,-632.5"/>
<text text-anchor="middle" x="451.5" y="-761.3" font-family="Times,serif" font-size="14.00">source</text>
</g>
<g id="clust7" class="cluster">
<title>cluster_gar1t</title>
<polygon fill="none" stroke="black" points="1229,-374.5 1229,-783.5 1474,-783.5 1474,-374.5 1229,-374.5"/>
<text text-anchor="middle" x="1351.5" y="-768.3" font-family="Times,serif" font-size="14.00">gar1t</text>
</g>
<g id="clust8" class="cluster">
<title>cluster_gar1t_source</title>
<polygon fill="none" stroke="black" points="1392,-656.5 1392,-752.5 1466,-752.5 1466,-656.5 1392,-656.5"/>
<text text-anchor="middle" x="1429" y="-737.3" font-family="Times,serif" font-size="14.00">gar1t</text>
</g>
<g id="clust9" class="cluster">
<title>cluster_tagger</title>
<polygon fill="none" stroke="black" points="673,-80 673,-155 932,-155 932,-80 673,-80"/>
<text text-anchor="middle" x="802.5" y="-139.8" font-family="Times,serif" font-size="14.00">tagger</text>
</g>
<g id="clust10" class="cluster">
<title>cluster_tokenizer</title>
<polygon fill="none" stroke="black" points="420,-8 420,-155 578,-155 578,-8 420,-8"/>
<text text-anchor="middle" x="499" y="-139.8" font-family="Times,serif" font-size="14.00">tokenizer</text>
</g>
<!-- wink_pos -->
<g id="node1" class="node">
<title>wink_pos</title>
<ellipse fill="none" stroke="black" cx="858" cy="-189" rx="85.29" ry="18"/>
<text text-anchor="middle" x="858" y="-185.3" font-family="Times,serif" font-size="14.00">wink&#45;pos&#45;tagger</text>
</g>
<!-- tagger_oneToken -->
<g id="node34" class="node">
<title>tagger_oneToken</title>
<ellipse fill="none" stroke="black" cx="858" cy="-106" rx="65.79" ry="18"/>
<text text-anchor="middle" x="858" y="-102.3" font-family="Times,serif" font-size="14.00">oneToken.js</text>
</g>
<!-- wink_pos&#45;&gt;tagger_oneToken -->
<g id="edge29" class="edge">
<title>wink_pos&#45;&gt;tagger_oneToken</title>
<path fill="none" stroke="black" d="M858,-170.82C858,-160.19 858,-146.31 858,-134.2"/>
<polygon fill="black" stroke="black" points="861.5,-134.15 858,-124.15 854.5,-134.15 861.5,-134.15"/>
</g>
<!-- wink_tokenizer -->
<g id="node2" class="node">
<title>wink_tokenizer</title>
<ellipse fill="none" stroke="black" cx="676" cy="-189" rx="79.09" ry="18"/>
<text text-anchor="middle" x="676" y="-185.3" font-family="Times,serif" font-size="14.00">wink&#45;tokenizer</text>
</g>
<!-- tokenizer_gluewalker -->
<g id="node36" class="node">
<title>tokenizer_gluewalker</title>
<ellipse fill="none" stroke="black" cx="499" cy="-106" rx="71.49" ry="18"/>
<text text-anchor="middle" x="499" y="-102.3" font-family="Times,serif" font-size="14.00">gluewalker.js</text>
</g>
<!-- wink_tokenizer&#45;&gt;tokenizer_gluewalker -->
<g id="edge32" class="edge">
<title>wink_tokenizer&#45;&gt;tokenizer_gluewalker</title>
<path fill="none" stroke="black" d="M642.29,-172.57C613.57,-159.43 572.15,-140.47 541.22,-126.32"/>
<polygon fill="black" stroke="black" points="542.53,-123.07 531.98,-122.09 539.62,-129.44 542.53,-123.07"/>
</g>
<!-- bot_auth -->
<g id="node3" class="node">
<title>bot_auth</title>
<polygon fill="none" stroke="black" points="1188.5,-124 1123.5,-124 1123.5,-88 1188.5,-88 1188.5,-124"/>
<text text-anchor="middle" x="1156" y="-102.3" font-family="Times,serif" font-size="14.00">auth.js</text>
</g>
<!-- bot_config -->
<g id="node4" class="node">
<title>bot_config</title>
<ellipse fill="none" stroke="black" cx="1156" cy="-189" rx="49.29" ry="18"/>
<text text-anchor="middle" x="1156" y="-185.3" font-family="Times,serif" font-size="14.00">config.js</text>
</g>
<!-- bot_config&#45;&gt;bot_auth -->
<g id="edge2" class="edge">
<title>bot_config&#45;&gt;bot_auth</title>
<path fill="none" stroke="black" d="M1156,-170.82C1156,-160.19 1156,-146.31 1156,-134.2"/>
<polygon fill="black" stroke="black" points="1159.5,-134.15 1156,-124.15 1152.5,-134.15 1159.5,-134.15"/>
</g>
<!-- bot_index -->
<g id="node5" class="node">
<title>bot_index</title>
<polygon fill="none" stroke="black" points="1302,-124 1230,-124 1230,-88 1302,-88 1302,-124"/>
<text text-anchor="middle" x="1266" y="-102.3" font-family="Times,serif" font-size="14.00">index.js</text>
</g>
<!-- bot_config&#45;&gt;bot_index -->
<g id="edge1" class="edge">
<title>bot_config&#45;&gt;bot_index</title>
<path fill="none" stroke="black" d="M1176.95,-172.57C1193.27,-160.55 1216.2,-143.67 1234.7,-130.05"/>
<polygon fill="black" stroke="black" points="1236.87,-132.8 1242.85,-124.05 1232.72,-127.16 1236.87,-132.8"/>
</g>
<!-- bot_command -->
<g id="node6" class="node">
<title>bot_command</title>
<ellipse fill="none" stroke="black" cx="1290" cy="-189" rx="66.09" ry="18"/>
<text text-anchor="middle" x="1290" y="-185.3" font-family="Times,serif" font-size="14.00">command.js</text>
</g>
<!-- bot_command&#45;&gt;bot_index -->
<g id="edge4" class="edge">
<title>bot_command&#45;&gt;bot_index</title>
<path fill="none" stroke="black" d="M1284.91,-170.82C1281.73,-160.08 1277.56,-146.03 1273.95,-133.84"/>
<polygon fill="black" stroke="black" points="1277.28,-132.75 1271.08,-124.15 1270.57,-134.74 1277.28,-132.75"/>
</g>
<!-- bot_commands_buzz -->
<g id="node7" class="node">
<title>bot_commands_buzz</title>
<ellipse fill="none" stroke="black" cx="1398" cy="-286.5" rx="42.79" ry="18"/>
<text text-anchor="middle" x="1398" y="-282.8" font-family="Times,serif" font-size="14.00">buzz.js</text>
</g>
<!-- bot_commands_gar1t -->
<g id="node8" class="node">
<title>bot_commands_gar1t</title>
<ellipse fill="none" stroke="black" cx="1290" cy="-286.5" rx="46.59" ry="18"/>
<text text-anchor="middle" x="1290" y="-282.8" font-family="Times,serif" font-size="14.00">gar1t.js</text>
</g>
<!-- bot_commands_gar1t&#45;&gt;bot_command -->
<g id="edge3" class="edge">
<title>bot_commands_gar1t&#45;&gt;bot_command</title>
<path fill="none" stroke="black" d="M1290,-260.5C1290,-247.26 1290,-230.97 1290,-217.38"/>
<polygon fill="black" stroke="black" points="1293.5,-217.25 1290,-207.25 1286.5,-217.25 1293.5,-217.25"/>
</g>
<!-- bot_commands_serious -->
<g id="node9" class="node">
<title>bot_commands_serious</title>
<ellipse fill="none" stroke="black" cx="1170" cy="-286.5" rx="55.49" ry="18"/>
<text text-anchor="middle" x="1170" y="-282.8" font-family="Times,serif" font-size="14.00">serious.js</text>
</g>
<!-- bot_commands_zalgo -->
<g id="node10" class="node">
<title>bot_commands_zalgo</title>
<ellipse fill="none" stroke="black" cx="1051" cy="-286.5" rx="46.29" ry="18"/>
<text text-anchor="middle" x="1051" y="-282.8" font-family="Times,serif" font-size="14.00">zalgo.js</text>
</g>
<!-- zalgo_chars -->
<g id="node11" class="node">
<title>zalgo_chars</title>
<ellipse fill="none" stroke="black" cx="1105" cy="-493.5" rx="46.59" ry="18"/>
<text text-anchor="middle" x="1105" y="-489.8" font-family="Times,serif" font-size="14.00">chars.js</text>
</g>
<!-- zalgo_add -->
<g id="node12" class="node">
<title>zalgo_add</title>
<ellipse fill="none" stroke="black" cx="1045" cy="-400.5" rx="38.19" ry="18"/>
<text text-anchor="middle" x="1045" y="-396.8" font-family="Times,serif" font-size="14.00">add.js</text>
</g>
<!-- zalgo_chars&#45;&gt;zalgo_add -->
<g id="edge5" class="edge">
<title>zalgo_chars&#45;&gt;zalgo_add</title>
<path fill="none" stroke="black" d="M1094,-475.81C1084.95,-462.08 1071.98,-442.42 1061.66,-426.76"/>
<polygon fill="black" stroke="black" points="1064.36,-424.51 1055.94,-418.08 1058.52,-428.36 1064.36,-424.51"/>
</g>
<!-- zalgo_remove -->
<g id="node13" class="node">
<title>zalgo_remove</title>
<ellipse fill="none" stroke="black" cx="1157" cy="-400.5" rx="55.79" ry="18"/>
<text text-anchor="middle" x="1157" y="-396.8" font-family="Times,serif" font-size="14.00">remove.js</text>
</g>
<!-- zalgo_chars&#45;&gt;zalgo_remove -->
<g id="edge6" class="edge">
<title>zalgo_chars&#45;&gt;zalgo_remove</title>
<path fill="none" stroke="black" d="M1114.54,-475.81C1122.26,-462.3 1133.27,-443.03 1142.15,-427.5"/>
<polygon fill="black" stroke="black" points="1145.42,-428.81 1147.35,-418.39 1139.35,-425.34 1145.42,-428.81"/>
</g>
<!-- zalgo_add&#45;&gt;bot_commands_zalgo -->
<g id="edge27" class="edge">
<title>zalgo_add&#45;&gt;bot_commands_zalgo</title>
<path fill="none" stroke="black" d="M1045.91,-382.49C1046.87,-364.56 1048.4,-336.06 1049.53,-314.94"/>
<polygon fill="black" stroke="black" points="1053.04,-314.84 1050.08,-304.67 1046.05,-314.47 1053.04,-314.84"/>
</g>
<!-- dict_dbfilename -->
<g id="node14" class="node">
<title>dict_dbfilename</title>
<ellipse fill="none" stroke="black" cx="248" cy="-693" rx="72.59" ry="18"/>
<text text-anchor="middle" x="248" y="-689.3" font-family="Times,serif" font-size="14.00">dbfilename.js</text>
</g>
<!-- dict_dup -->
<g id="node16" class="node">
<title>dict_dup</title>
<polygon fill="none" stroke="black" points="278,-604.5 218,-604.5 218,-568.5 278,-568.5 278,-604.5"/>
<text text-anchor="middle" x="248" y="-582.8" font-family="Times,serif" font-size="14.00">dup.js</text>
</g>
<!-- dict_dbfilename&#45;&gt;dict_dup -->
<g id="edge7" class="edge">
<title>dict_dbfilename&#45;&gt;dict_dup</title>
<path fill="none" stroke="black" d="M248,-674.74C248,-658.48 248,-633.85 248,-614.9"/>
<polygon fill="black" stroke="black" points="251.5,-614.78 248,-604.78 244.5,-614.78 251.5,-614.78"/>
</g>
<!-- dict_index -->
<g id="node17" class="node">
<title>dict_index</title>
<ellipse fill="none" stroke="black" cx="298" cy="-400.5" rx="46.59" ry="18"/>
<text text-anchor="middle" x="298" y="-396.8" font-family="Times,serif" font-size="14.00">index.js</text>
</g>
<!-- dict_dbfilename&#45;&gt;dict_index -->
<g id="edge8" class="edge">
<title>dict_dbfilename&#45;&gt;dict_index</title>
<path fill="none" stroke="black" d="M257.88,-674.9C267.26,-657.73 280.8,-630.21 287,-604.5 301.83,-543.03 301.29,-468.18 299.63,-428.78"/>
<polygon fill="black" stroke="black" points="303.12,-428.46 299.14,-418.64 296.13,-428.8 303.12,-428.46"/>
</g>
<!-- dict_mkdb -->
<g id="node18" class="node">
<title>dict_mkdb</title>
<polygon fill="none" stroke="black" points="549.5,-604.5 476.5,-604.5 476.5,-568.5 549.5,-568.5 549.5,-604.5"/>
<text text-anchor="middle" x="513" y="-582.8" font-family="Times,serif" font-size="14.00">mkdb.js</text>
</g>
<!-- dict_dbfilename&#45;&gt;dict_mkdb -->
<g id="edge9" class="edge">
<title>dict_dbfilename&#45;&gt;dict_mkdb</title>
<path fill="none" stroke="black" d="M265.09,-675.29C279.97,-661.7 302.75,-643.09 326,-632.5 382.16,-606.92 402.4,-620.51 462,-604.5 463.46,-604.11 464.95,-603.69 466.44,-603.27"/>
<polygon fill="black" stroke="black" points="467.82,-606.51 476.39,-600.28 465.8,-599.81 467.82,-606.51"/>
</g>
<!-- dict_mktags -->
<g id="node19" class="node">
<title>dict_mktags</title>
<polygon fill="none" stroke="black" points="551,-418.5 465,-418.5 465,-382.5 551,-382.5 551,-418.5"/>
<text text-anchor="middle" x="508" y="-396.8" font-family="Times,serif" font-size="14.00">mktags.js</text>
</g>
<!-- dict_dbfilename&#45;&gt;dict_mktags -->
<g id="edge11" class="edge">
<title>dict_dbfilename&#45;&gt;dict_mktags</title>
<path fill="none" stroke="black" d="M269.13,-675.77C284.8,-663.77 306.68,-647.05 326,-632.5 379.53,-592.17 405.39,-595.04 447,-542.5 474.55,-507.71 492.06,-458.58 500.94,-428.45"/>
<polygon fill="black" stroke="black" points="504.36,-429.21 503.72,-418.64 497.62,-427.3 504.36,-429.21"/>
</g>
<!-- dict_mktree -->
<g id="node20" class="node">
<title>dict_mktree</title>
<polygon fill="none" stroke="black" points="447,-418.5 363,-418.5 363,-382.5 447,-382.5 447,-418.5"/>
<text text-anchor="middle" x="405" y="-396.8" font-family="Times,serif" font-size="14.00">mktree.js</text>
</g>
<!-- dict_dbfilename&#45;&gt;dict_mktree -->
<g id="edge14" class="edge">
<title>dict_dbfilename&#45;&gt;dict_mktree</title>
<path fill="none" stroke="black" d="M257.8,-675.12C267.81,-657.65 283.59,-629.48 296,-604.5 328.47,-539.1 325.14,-516.93 363,-454.5 368.81,-444.91 376.13,-435.11 383.03,-426.57"/>
<polygon fill="black" stroke="black" points="385.75,-428.77 389.44,-418.84 380.36,-424.3 385.75,-428.77"/>
</g>
<!-- dict_db -->
<g id="node15" class="node">
<title>dict_db</title>
<polygon fill="none" stroke="black" points="438,-526.5 372,-526.5 372,-460.5 438,-460.5 438,-526.5"/>
<polyline fill="none" stroke="black" points="384,-526.5 372,-514.5 "/>
<polyline fill="none" stroke="black" points="372,-472.5 384,-460.5 "/>
<polyline fill="none" stroke="black" points="426,-460.5 438,-472.5 "/>
<polyline fill="none" stroke="black" points="438,-514.5 426,-526.5 "/>
<text text-anchor="middle" x="405" y="-489.8" font-family="Times,serif" font-size="14.00">dict.db</text>
</g>
<!-- dict_db&#45;&gt;dict_index -->
<g id="edge17" class="edge">
<title>dict_db&#45;&gt;dict_index</title>
<path fill="none" stroke="black" d="M371.73,-464.21C356.55,-451.3 338.82,-436.22 324.56,-424.08"/>
<polygon fill="black" stroke="black" points="326.48,-421.13 316.6,-417.32 321.95,-426.46 326.48,-421.13"/>
</g>
<!-- dict_db&#45;&gt;dict_mktags -->
<g id="edge18" class="edge">
<title>dict_db&#45;&gt;dict_mktags</title>
<path fill="none" stroke="black" d="M438.16,-463.21C451.99,-450.99 467.85,-436.97 480.96,-425.39"/>
<polygon fill="black" stroke="black" points="483.54,-427.78 488.72,-418.53 478.91,-422.53 483.54,-427.78"/>
</g>
<!-- dict_db&#45;&gt;dict_mktree -->
<g id="edge19" class="edge">
<title>dict_db&#45;&gt;dict_mktree</title>
<path fill="none" stroke="black" d="M405,-460.42C405,-450.05 405,-438.65 405,-428.67"/>
<polygon fill="black" stroke="black" points="408.5,-428.51 405,-418.51 401.5,-428.51 408.5,-428.51"/>
</g>
<!-- dict_mkdb&#45;&gt;dict_db -->
<g id="edge10" class="edge">
<title>dict_mkdb&#45;&gt;dict_db</title>
<path fill="none" stroke="black" d="M492.69,-568.38C479.56,-557.32 462.01,-542.53 446.06,-529.1"/>
<polygon fill="black" stroke="black" points="448.29,-526.4 438.38,-522.63 443.78,-531.75 448.29,-526.4"/>
</g>
<!-- dict_tagsj -->
<g id="node21" class="node">
<title>dict_tagsj</title>
<polygon fill="none" stroke="black" points="561.5,-327 480.5,-327 480.5,-246 561.5,-246 561.5,-327"/>
<polyline fill="none" stroke="black" points="492.5,-327 480.5,-315 "/>
<polyline fill="none" stroke="black" points="480.5,-258 492.5,-246 "/>
<polyline fill="none" stroke="black" points="549.5,-246 561.5,-258 "/>
<polyline fill="none" stroke="black" points="561.5,-315 549.5,-327 "/>
<text text-anchor="middle" x="521" y="-282.8" font-family="Times,serif" font-size="14.00">tags.json</text>
</g>
<!-- dict_mktags&#45;&gt;dict_tagsj -->
<g id="edge12" class="edge">
<title>dict_mktags&#45;&gt;dict_tagsj</title>
<path fill="none" stroke="black" d="M509.97,-382.49C511.39,-370.33 513.36,-353.29 515.25,-337"/>
<polygon fill="black" stroke="black" points="518.74,-337.34 516.41,-327.01 511.78,-336.54 518.74,-337.34"/>
</g>
<!-- dict_treej -->
<g id="node22" class="node">
<title>dict_treej</title>
<polygon fill="none" stroke="black" points="449,-326.5 369,-326.5 369,-246.5 449,-246.5 449,-326.5"/>
<polyline fill="none" stroke="black" points="381,-326.5 369,-314.5 "/>
<polyline fill="none" stroke="black" points="369,-258.5 381,-246.5 "/>
<polyline fill="none" stroke="black" points="437,-246.5 449,-258.5 "/>
<polyline fill="none" stroke="black" points="449,-314.5 437,-326.5 "/>
<text text-anchor="middle" x="409" y="-282.8" font-family="Times,serif" font-size="14.00">tree.json</text>
</g>
<!-- dict_mktree&#45;&gt;dict_treej -->
<g id="edge15" class="edge">
<title>dict_mktree&#45;&gt;dict_treej</title>
<path fill="none" stroke="black" d="M405.61,-382.49C406.05,-370.23 406.66,-353.01 407.25,-336.6"/>
<polygon fill="black" stroke="black" points="410.75,-336.65 407.61,-326.53 403.75,-336.4 410.75,-336.65"/>
</g>
<!-- dict_tags -->
<g id="node23" class="node">
<title>dict_tags</title>
<ellipse fill="none" stroke="black" cx="528" cy="-189" rx="41.69" ry="18"/>
<text text-anchor="middle" x="528" y="-185.3" font-family="Times,serif" font-size="14.00">tags.js</text>
</g>
<!-- dict_tagsj&#45;&gt;dict_tags -->
<g id="edge13" class="edge">
<title>dict_tagsj&#45;&gt;dict_tags</title>
<path fill="none" stroke="black" d="M523.91,-245.83C524.61,-236.21 525.35,-226.14 526,-217.25"/>
<polygon fill="black" stroke="black" points="529.51,-217.31 526.75,-207.08 522.53,-216.8 529.51,-217.31"/>
</g>
<!-- dict_tree -->
<g id="node24" class="node">
<title>dict_tree</title>
<ellipse fill="none" stroke="black" cx="422" cy="-189" rx="40.09" ry="18"/>
<text text-anchor="middle" x="422" y="-185.3" font-family="Times,serif" font-size="14.00">tree.js</text>
</g>
<!-- dict_treej&#45;&gt;dict_tree -->
<g id="edge16" class="edge">
<title>dict_treej&#45;&gt;dict_tree</title>
<path fill="none" stroke="black" d="M414.33,-246.38C415.66,-236.61 417.05,-226.33 418.29,-217.27"/>
<polygon fill="black" stroke="black" points="421.76,-217.68 419.65,-207.3 414.83,-216.73 421.76,-217.68"/>
</g>
<!-- tagger_index -->
<g id="node35" class="node">
<title>tagger_index</title>
<ellipse fill="none" stroke="black" cx="728" cy="-106" rx="46.59" ry="18"/>
<text text-anchor="middle" x="728" y="-102.3" font-family="Times,serif" font-size="14.00">index.js</text>
</g>
<!-- dict_tags&#45;&gt;tagger_index -->
<g id="edge31" class="edge">
<title>dict_tags&#45;&gt;tagger_index</title>
<path fill="none" stroke="black" d="M555.74,-175.57C565.01,-171.48 575.42,-166.98 585,-163 618.81,-148.97 657.5,-133.88 686.09,-122.9"/>
<polygon fill="black" stroke="black" points="687.68,-126.04 695.76,-119.2 685.17,-119.51 687.68,-126.04"/>
</g>
<!-- dict_tree&#45;&gt;tokenizer_gluewalker -->
<g id="edge33" class="edge">
<title>dict_tree&#45;&gt;tokenizer_gluewalker</title>
<path fill="none" stroke="black" d="M437.21,-172C448.28,-160.36 463.45,-144.39 475.99,-131.2"/>
<polygon fill="black" stroke="black" points="478.67,-133.47 483.02,-123.81 473.6,-128.64 478.67,-133.47"/>
</g>
<!-- dict_all_c -->
<g id="node25" class="node">
<title>dict_all_c</title>
<ellipse fill="none" stroke="black" cx="127" cy="-693" rx="29.8" ry="18"/>
<text text-anchor="middle" x="127" y="-689.3" font-family="Times,serif" font-size="14.00">all.c</text>
</g>
<!-- dict_all_exe -->
<g id="node26" class="node">
<title>dict_all_exe</title>
<polygon fill="none" stroke="black" points="79.5,-711 16.5,-711 16.5,-675 79.5,-675 79.5,-711"/>
<text text-anchor="middle" x="48" y="-689.3" font-family="Times,serif" font-size="14.00">all.exe</text>
</g>
<!-- dict_source_tokens_csv -->
<g id="node27" class="node">
<title>dict_source_tokens_csv</title>
<polygon fill="none" stroke="black" points="564.5,-744.5 461.5,-744.5 461.5,-641.5 564.5,-641.5 564.5,-744.5"/>
<polyline fill="none" stroke="black" points="473.5,-744.5 461.5,-732.5 "/>
<polyline fill="none" stroke="black" points="461.5,-653.5 473.5,-641.5 "/>
<polyline fill="none" stroke="black" points="552.5,-641.5 564.5,-653.5 "/>
<polyline fill="none" stroke="black" points="564.5,-732.5 552.5,-744.5 "/>
<text text-anchor="middle" x="513" y="-689.3" font-family="Times,serif" font-size="14.00">*.tokens.csv</text>
</g>
<!-- dict_source_tokens_csv&#45;&gt;dict_mkdb -->
<g id="edge20" class="edge">
<title>dict_source_tokens_csv&#45;&gt;dict_mkdb</title>
<path fill="none" stroke="black" d="M513,-632.5C513,-626.47 513,-620.58 513,-615.14"/>
<polygon fill="black" stroke="black" points="516.5,-614.88 513,-604.88 509.5,-614.88 516.5,-614.88"/>
</g>
<!-- dict_source_arrows_csv -->
<g id="node28" class="node">
<title>dict_source_arrows_csv</title>
<polygon fill="none" stroke="black" points="443.5,-745.5 338.5,-745.5 338.5,-640.5 443.5,-640.5 443.5,-745.5"/>
<polyline fill="none" stroke="black" points="350.5,-745.5 338.5,-733.5 "/>
<polyline fill="none" stroke="black" points="338.5,-652.5 350.5,-640.5 "/>
<polyline fill="none" stroke="black" points="431.5,-640.5 443.5,-652.5 "/>
<polyline fill="none" stroke="black" points="443.5,-733.5 431.5,-745.5 "/>
<text text-anchor="middle" x="391" y="-689.3" font-family="Times,serif" font-size="14.00">*.arrows.csv</text>
</g>
<!-- gar1t_dbfilename -->
<g id="node29" class="node">
<title>gar1t_dbfilename</title>
<ellipse fill="none" stroke="black" cx="1310" cy="-693" rx="72.59" ry="18"/>
<text text-anchor="middle" x="1310" y="-689.3" font-family="Times,serif" font-size="14.00">dbfilename.js</text>
</g>
<!-- gar1t_index -->
<g id="node31" class="node">
<title>gar1t_index</title>
<ellipse fill="none" stroke="black" cx="1303" cy="-400.5" rx="46.59" ry="18"/>
<text text-anchor="middle" x="1303" y="-396.8" font-family="Times,serif" font-size="14.00">index.js</text>
</g>
<!-- gar1t_dbfilename&#45;&gt;gar1t_index -->
<g id="edge24" class="edge">
<title>gar1t_dbfilename&#45;&gt;gar1t_index</title>
<path fill="none" stroke="black" d="M1309.58,-674.7C1308.41,-626.06 1305.08,-487.82 1303.66,-428.77"/>
<polygon fill="black" stroke="black" points="1307.15,-428.62 1303.41,-418.71 1300.16,-428.79 1307.15,-428.62"/>
</g>
<!-- gar1t_mkdb -->
<g id="node32" class="node">
<title>gar1t_mkdb</title>
<ellipse fill="none" stroke="black" cx="1369" cy="-586.5" rx="47.39" ry="18"/>
<text text-anchor="middle" x="1369" y="-582.8" font-family="Times,serif" font-size="14.00">mkdb.js</text>
</g>
<!-- gar1t_dbfilename&#45;&gt;gar1t_mkdb -->
<g id="edge21" class="edge">
<title>gar1t_dbfilename&#45;&gt;gar1t_mkdb</title>
<path fill="none" stroke="black" d="M1319.74,-674.74C1329.19,-658 1343.65,-632.4 1354.46,-613.25"/>
<polygon fill="black" stroke="black" points="1357.57,-614.86 1359.44,-604.43 1351.47,-611.42 1357.57,-614.86"/>
</g>
<!-- gar1t_db -->
<g id="node30" class="node">
<title>gar1t_db</title>
<polygon fill="none" stroke="black" points="1404,-532.5 1326,-532.5 1326,-454.5 1404,-454.5 1404,-532.5"/>
<polyline fill="none" stroke="black" points="1338,-532.5 1326,-520.5 "/>
<polyline fill="none" stroke="black" points="1326,-466.5 1338,-454.5 "/>
<polyline fill="none" stroke="black" points="1392,-454.5 1404,-466.5 "/>
<polyline fill="none" stroke="black" points="1404,-520.5 1392,-532.5 "/>
<text text-anchor="middle" x="1365" y="-489.8" font-family="Times,serif" font-size="14.00">gar1t.db</text>
</g>
<!-- gar1t_db&#45;&gt;gar1t_index -->
<g id="edge23" class="edge">
<title>gar1t_db&#45;&gt;gar1t_index</title>
<path fill="none" stroke="black" d="M1339.07,-454.44C1332.66,-445.04 1325.96,-435.2 1320.1,-426.6"/>
<polygon fill="black" stroke="black" points="1322.86,-424.44 1314.34,-418.14 1317.08,-428.38 1322.86,-424.44"/>
</g>
<!-- gar1t_index&#45;&gt;bot_commands_gar1t -->
<g id="edge28" class="edge">
<title>gar1t_index&#45;&gt;bot_commands_gar1t</title>
<path fill="none" stroke="black" d="M1301.03,-382.49C1298.94,-364.48 1295.61,-335.79 1293.15,-314.65"/>
<polygon fill="black" stroke="black" points="1296.62,-314.2 1291.99,-304.67 1289.67,-315.01 1296.62,-314.2"/>
</g>
<!-- gar1t_mkdb&#45;&gt;gar1t_db -->
<g id="edge22" class="edge">
<title>gar1t_mkdb&#45;&gt;gar1t_db</title>
<path fill="none" stroke="black" d="M1368.25,-568.38C1367.92,-560.97 1367.52,-551.89 1367.12,-542.66"/>
<polygon fill="black" stroke="black" points="1370.61,-542.5 1366.68,-532.66 1363.62,-542.8 1370.61,-542.5"/>
</g>
<!-- gar1t_source_json -->
<g id="node33" class="node">
<title>gar1t_source_json</title>
<polygon fill="none" stroke="black" points="1457.5,-721.5 1400.5,-721.5 1400.5,-664.5 1457.5,-664.5 1457.5,-721.5"/>
<polyline fill="none" stroke="black" points="1412.5,-721.5 1400.5,-709.5 "/>
<polyline fill="none" stroke="black" points="1400.5,-676.5 1412.5,-664.5 "/>
<polyline fill="none" stroke="black" points="1445.5,-664.5 1457.5,-676.5 "/>
<polyline fill="none" stroke="black" points="1457.5,-709.5 1445.5,-721.5 "/>
<text text-anchor="middle" x="1429" y="-689.3" font-family="Times,serif" font-size="14.00">*.json</text>
</g>
<!-- gar1t_source_json&#45;&gt;gar1t_mkdb -->
<g id="edge25" class="edge">
<title>gar1t_source_json&#45;&gt;gar1t_mkdb</title>
<path fill="none" stroke="black" d="M1410.38,-656.5C1406.08,-648.55 1401.46,-640.2 1397,-632.5 1393.34,-626.19 1389.27,-619.47 1385.38,-613.2"/>
<polygon fill="black" stroke="black" points="1388.17,-611.06 1379.89,-604.44 1382.23,-614.77 1388.17,-611.06"/>
</g>
<!-- tagger_oneToken&#45;&gt;dict_mkdb -->
<g id="edge30" class="edge">
<title>tagger_oneToken&#45;&gt;dict_mkdb</title>
<path fill="none" stroke="black" d="M898.1,-120.32C918.44,-129.18 941.61,-142.94 955,-163 985.48,-208.67 971,-230.59 971,-285.5 971,-401.5 971,-401.5 971,-401.5 971,-489.46 676.44,-554.68 559.77,-577.06"/>
<polygon fill="black" stroke="black" points="558.88,-573.67 549.71,-578.97 560.18,-580.54 558.88,-573.67"/>
</g>
<!-- tokenizer_index -->
<g id="node37" class="node">
<title>tokenizer_index</title>
<ellipse fill="none" stroke="black" cx="499" cy="-34" rx="46.59" ry="18"/>
<text text-anchor="middle" x="499" y="-30.3" font-family="Times,serif" font-size="14.00">index.js</text>
</g>
<!-- tokenizer_gluewalker&#45;&gt;tokenizer_index -->
<g id="edge26" class="edge">
<title>tokenizer_gluewalker&#45;&gt;tokenizer_index</title>
<path fill="none" stroke="black" d="M499,-87.7C499,-79.98 499,-70.71 499,-62.11"/>
<polygon fill="black" stroke="black" points="502.5,-62.1 499,-52.1 495.5,-62.1 502.5,-62.1"/>
</g>
</g>
</svg>
